<svg viewBox="0 0 920 520" xmlns="http://www.w3.org/2000/svg" role="img" aria-labelledby="title desc">
  <title id="title">Ritual diario de trading</title>
  <desc id="desc">Panel de diario de trading con checklist, grafico de velas y progreso de rutina.</desc>
  <defs>
    <linearGradient id="bg1" x1="88" x2="820" y1="52" y2="468" gradientUnits="userSpaceOnUse">
      <stop stop-color="#17243A"/>
      <stop offset="1" stop-color="#080D17"/>
    </linearGradient>
    <radialGradient id="glow1" cx="0" cy="0" r="1" gradientTransform="matrix(330 0 0 210 668 138)" gradientUnits="userSpaceOnUse">
      <stop stop-color="#3DD9B4" stop-opacity=".20"/>
      <stop offset="1" stop-color="#3DD9B4" stop-opacity="0"/>
    </radialGradient>
    <filter id="shadow1" x="48" y="30" width="824" height="448" filterUnits="userSpaceOnUse">
      <feDropShadow dx="0" dy="24" stdDeviation="28" flood-color="#000611" flood-opacity=".62"/>
    </filter>
  </defs>
  <rect width="920" height="520" rx="38" fill="#080B12"/>
  <circle cx="718" cy="118" r="240" fill="#3DD9B4" fill-opacity=".055"/>
  <circle cx="162" cy="430" r="210" fill="#67B3FF" fill-opacity=".045"/>
  <g filter="url(#shadow1)">
    <rect x="74" y="54" width="772" height="404" rx="34" fill="url(#bg1)" stroke="#263653"/>
  </g>
  <rect x="74" y="54" width="772" height="58" rx="34" fill="#101725"/>
  <circle cx="110" cy="84" r="7" fill="#FF5D73"/>
  <circle cx="136" cy="84" r="7" fill="#F6AD55"/>
  <circle cx="162" cy="84" r="7" fill="#3DD9B4"/>
  <rect x="202" y="72" width="118" height="24" rx="12" fill="#0B1220" stroke="#263653"/>
  <text x="222" y="88" fill="#F3F7FF" font-family="monospace" font-size="13" font-weight="700">RUTINA</text>
  <rect x="340" y="72" width="86" height="24" rx="12" fill="#3DD9B4" fill-opacity=".14" stroke="#3DD9B4" stroke-opacity=".35"/>
  <text x="360" y="88" fill="#3DD9B4" font-family="monospace" font-size="12" font-weight="700">LISTO</text>

  <rect x="102" y="142" width="306" height="266" rx="24" fill="#0B1220" stroke="#263653"/>
  <text x="132" y="184" fill="#F3F7FF" font-family="monospace" font-size="25" font-weight="700">Ritual</text>
  <text x="132" y="210" fill="#90A0BC" font-family="monospace" font-size="13">Plan claro. Mente calma.</text>
  <g stroke-linecap="round" font-family="monospace">
    <circle cx="138" cy="254" r="13" fill="#3DD9B4" fill-opacity=".14" stroke="#3DD9B4"/>
    <path d="M132 254L137 259L147 247" fill="none" stroke="#3DD9B4" stroke-width="3"/>
    <text x="168" y="259" fill="#F3F7FF" font-size="15">Plan antes de entrar</text>
    <circle cx="138" cy="302" r="13" fill="#3DD9B4" fill-opacity=".14" stroke="#3DD9B4"/>
    <path d="M132 302L137 307L147 295" fill="none" stroke="#3DD9B4" stroke-width="3"/>
    <text x="168" y="307" fill="#F3F7FF" font-size="15">Riesgo definido</text>
    <circle cx="138" cy="350" r="13" fill="#67B3FF" fill-opacity=".12" stroke="#67B3FF"/>
    <path d="M132 350L137 355L147 343" fill="none" stroke="#67B3FF" stroke-width="3"/>
    <text x="168" y="355" fill="#F3F7FF" font-size="15">Revision al cerrar</text>
  </g>

  <rect x="442" y="142" width="368" height="266" rx="24" fill="#0A111D" stroke="#263653"/>
  <rect x="442" y="142" width="368" height="266" rx="24" fill="url(#glow1)"/>
  <g stroke="#90A0BC" stroke-opacity=".1">
    <path d="M470 188H780M470 230H780M470 272H780M470 314H780M470 356H780"/>
    <path d="M514 166V380M572 166V380M630 166V380M688 166V380M746 166V380"/>
  </g>
  <path d="M476 326C510 302 536 314 566 280C596 246 628 266 660 226C690 188 724 204 780 154" fill="none" stroke="#3DD9B4" stroke-width="4" stroke-linecap="round"/>
  <path d="M476 344C514 328 548 338 584 312C626 282 660 296 700 266C734 240 752 246 780 226" fill="none" stroke="#67B3FF" stroke-opacity=".65" stroke-width="2.5" stroke-linecap="round"/>
  <g stroke-linecap="round">
    <path d="M512 262V348" stroke="#3DD9B4" stroke-width="2.5"/><rect x="503" y="292" width="18" height="42" rx="4" fill="#3DD9B4"/>
    <path d="M558 230V316" stroke="#FF5D73" stroke-width="2.5"/><rect x="549" y="254" width="18" height="44" rx="4" fill="#FF5D73"/>
    <path d="M604 208V292" stroke="#3DD9B4" stroke-width="2.5"/><rect x="595" y="232" width="18" height="38" rx="4" fill="#3DD9B4"/>
    <path d="M650 178V268" stroke="#3DD9B4" stroke-width="2.5"/><rect x="641" y="204" width="18" height="42" rx="4" fill="#3DD9B4"/>
    <path d="M696 190V276" stroke="#FF5D73" stroke-width="2.5"/><rect x="687" y="216" width="18" height="38" rx="4" fill="#FF5D73"/>
    <path d="M742 150V240" stroke="#3DD9B4" stroke-width="2.5"/><rect x="733" y="174" width="18" height="44" rx="4" fill="#3DD9B4"/>
  </g>
  <rect x="484" y="372" width="96" height="12" rx="6" fill="#3DD9B4" fill-opacity=".42"/>
  <rect x="598" y="372" width="72" height="12" rx="6" fill="#67B3FF" fill-opacity=".38"/>
  <rect x="688" y="372" width="54" height="12" rx="6" fill="#FF5D73" fill-opacity=".38"/>
</svg>
