<svg viewBox="0 0 920 520" xmlns="http://www.w3.org/2000/svg" role="img" aria-labelledby="title desc">
  <title id="title">Ciclo rapido de aprendizaje</title>
  <desc id="desc">Panel de diario de trading con ciclo de registrar, revisar, aprender y mejorar.</desc>
  <defs>
    <linearGradient id="bg2" x1="84" x2="830" y1="58" y2="466" gradientUnits="userSpaceOnUse"><stop stop-color="#141F33"/><stop offset="1" stop-color="#090E18"/></linearGradient>
    <filter id="shadow2" x="44" y="32" width="832" height="444" filterUnits="userSpaceOnUse"><feDropShadow dx="0" dy="24" stdDeviation="28" flood-color="#000611" flood-opacity=".62"/></filter>
  </defs>
  <rect width="920" height="520" rx="38" fill="#080B12"/>
  <path d="M0 390C132 318 220 414 366 334C520 250 600 290 920 148V520H0Z" fill="#3DD9B4" fill-opacity=".05"/>
  <g filter="url(#shadow2)">
    <rect x="76" y="58" width="768" height="404" rx="34" fill="url(#bg2)" stroke="#263653"/>
  </g>
  <text x="122" y="124" fill="#90A0BC" font-family="monospace" font-size="14">Ciclo de mejora</text>
  <text x="122" y="162" fill="#F3F7FF" font-family="monospace" font-size="34" font-weight="700">Registrar. Revisar.</text>
  <text x="122" y="194" fill="#90A0BC" font-family="monospace" font-size="15">Aprender de cada operacion.</text>

  <circle cx="480" cy="286" r="112" fill="#0B1220" stroke="#263653"/>
  <circle cx="480" cy="286" r="78" fill="#101725" stroke="#263653"/>
  <path d="M480 174A112 112 0 0 1 592 286" fill="none" stroke="#3DD9B4" stroke-width="10" stroke-linecap="round"/>
  <path d="M592 286A112 112 0 0 1 480 398" fill="none" stroke="#67B3FF" stroke-width="10" stroke-linecap="round"/>
  <path d="M480 398A112 112 0 0 1 368 286" fill="none" stroke="#F6AD55" stroke-width="10" stroke-linecap="round"/>
  <path d="M368 286A112 112 0 0 1 480 174" fill="none" stroke="#FF5D73" stroke-width="10" stroke-linecap="round"/>
  <text x="430" y="278" fill="#F3F7FF" font-family="monospace" font-size="20" font-weight="700">MAS</text>
  <text x="422" y="306" fill="#3DD9B4" font-family="monospace" font-size="24" font-weight="700">CLARO</text>

  <g font-family="monospace">
    <rect x="648" y="170" width="142" height="62" rx="18" fill="#0B1220" stroke="#263653"/>
    <text x="672" y="196" fill="#90A0BC" font-size="11">1. Registrar</text>
    <text x="672" y="218" fill="#3DD9B4" font-size="17" font-weight="700">Datos reales</text>
    <rect x="648" y="260" width="142" height="62" rx="18" fill="#0B1220" stroke="#263653"/>
    <text x="672" y="286" fill="#90A0BC" font-size="11">2. Revisar</text>
    <text x="672" y="308" fill="#67B3FF" font-size="17" font-weight="700">Sin ruido</text>
    <rect x="122" y="256" width="174" height="92" rx="22" fill="#0B1220" stroke="#263653"/>
    <text x="150" y="288" fill="#90A0BC" font-size="12">Racha</text>
    <text x="150" y="326" fill="#3DD9B4" font-size="35" font-weight="700">7 dias</text>
  </g>
  <g stroke-linecap="round">
    <path d="M160 388H278" stroke="#90A0BC" stroke-opacity=".18" stroke-width="10"/>
    <path d="M160 388H236" stroke="#3DD9B4" stroke-width="10"/>
    <circle cx="246" cy="388" r="11" fill="#3DD9B4" stroke="#080B12" stroke-width="4"/>
  </g>
</svg>
